<svg xmlns="http://www.w3.org/2000/svg" viewBox="0 0 64 64" width="64" height="64" role="img" aria-label="RipCo">
  <defs>
    <linearGradient id="rc-ocean" x1="0" y1="0" x2="0" y2="1">
      <stop offset="0" stop-color="#1D9BD8"/>
      <stop offset="1" stop-color="#0B72AC"/>
    </linearGradient>
  </defs>
  <path d="M0 32 C0 6.4 6.4 0 32 0 C57.6 0 64 6.4 64 32 C64 57.6 57.6 64 32 64 C6.4 64 0 57.6 0 32 Z" fill="url(#rc-ocean)"/>
  <path fill="#FFFFFF" d="M11.5 45.5 C11.5 28 21.5 14 37.5 12.5 C45.5 11.8 51.8 16 52.4 22.2 C53 28.5 48.5 33.2 42.5 33.7 C45.6 29.6 45.1 24.5 41 22.5 C36.5 20.4 30.4 23 27.4 29 C24.4 35 25.4 41 30 46 Z"/>
  <path fill="#FFFFFF" d="M31.5 40.5 C38 44.3 46.5 45.2 56 42.6 C50.5 48.8 39.5 49.8 32 44.9 C30.8 44.1 30.8 41.9 31.5 40.5 Z"/>
</svg>
